<?xml version="1.0" encoding="UTF-8"?>
<svg xmlns="http://www.w3.org/2000/svg" xmlns:xlink="http://www.w3.org/1999/xlink" width="180px" height="93px" viewBox="0 0 250 171.5" version="1.1">
<defs>
<clipPath id="clip1">
  <path d="M 0 2.5 L 250 2.5 L 250 171.5 L 0 171.5 Z M 0 2.5 "/>
</clipPath>
<clipPath id="clip2">
  <path d="M 275 129.5 L 1100 129.5 L 1100 185 L 275 185 Z M 275 129.5 "/>
</clipPath>
</defs>
<g id="surface1">
<g clip-path="url(#clip1)" clip-rule="nonzero">
<path style=" stroke:none;fill-rule:nonzero;fill:rgb(29.019608%,18.039216%,51.764706%);fill-opacity:1;" d="M 183.671875 2.546875 L 183.671875 33.457031 L 205.640625 33.457031 L 181.753906 123.253906 L 152.160156 2.546875 L 121.667969 2.546875 L 89.195312 124.214844 L 65.847656 33.457031 L 89.675781 33.457031 L 89.675781 2.546875 L 0 2.546875 L 0 33.457031 L 19.566406 33.457031 L 53.902344 171.453125 L 102.101562 171.453125 L 124.96875 85.078125 L 146.9375 171.453125 L 195.136719 171.453125 L 231.390625 33.457031 L 250 33.457031 L 250 2.546875 Z M 183.671875 2.546875 "/>
</g></g></svg>
